<?xml version="1.0" encoding="iso-8859-1"?>
<!-- Generator: Adobe Illustrator 19.0.0, SVG Export Plug-In . SVG Version: 6.00 Build 0)  -->
<svg version="1.1" id="Layer_1" xmlns="http://www.w3.org/2000/svg" xmlns:xlink="http://www.w3.org/1999/xlink" x="0px" y="0px"
	 viewBox="0 0 512 512" style="enable-background:new 0 0 512 512;" xml:space="preserve">
<g>
	<g>
		<path d="M481.31,163.84h-61.47v-30.72c0-0.944-0.299-1.794-0.539-2.664c18.117-6.209,31.259-23.221,31.259-43.416
			c0-25.41-20.67-46.08-46.08-46.08c-7.18,0-14.15,1.64-20.48,4.79c-15.175-7.55-34.525-5.75-48.11,4.415
			c-9.485-5.625-20.135-8.75-31.305-9.16c-6.38-18.05-23.69-30.765-43.465-30.765c-13.5,0-26.105,5.88-34.755,15.81
			c-21.865-9.565-48.725-6.155-67.465,8.38C143.675,13.17,118.73,0,92.16,0C46.99,0,10.24,36.75,10.24,81.92
			c0,20.696,7.775,39.568,20.48,54.002v304.343C30.72,479.82,62.9,512,102.455,512h245.65c39.555,0,71.735-32.18,71.735-71.735
			V348.16h30.72c28.23,0,51.2-22.95,51.2-51.16V184.33C501.76,173.03,492.585,163.84,481.31,163.84z M399.36,133.12v40.96v163.84
			v102.345c0,28.26-22.995,51.255-51.255,51.255h-245.65c-28.26,0-51.255-22.995-51.255-51.255v-287.51
			c12.066,7.006,26.032,11.085,40.96,11.085c24.205,0,46.535-10.37,61.955-28.285c12.23,11.47,28.485,18.045,45.565,18.045
			c16.03,0,31.215-5.715,43.095-15.815c11.125,21.8,33.79,36.295,59.305,36.295c27.1,0,51.255-16.465,61.46-40.96
			c7.175-0.005,14.14-1.645,20.46-4.79c4.83,2.403,10.035,3.911,15.419,4.5C399.415,132.931,399.36,133.018,399.36,133.12z
			 M389.86,108.055c-3.52-2.45-8.2-2.45-11.72,0c-5.675,3.97-12.83,5.465-19.685,4.09c-5.295-1.055-10.47,2.18-11.875,7.385
			c-5.395,20.06-23.695,34.07-44.5,34.07c-22.15,0-41.195-15.77-45.28-37.495c-0.775-4.1-3.955-7.32-8.045-8.145
			c-0.675-0.135-1.35-0.2-2.02-0.2c-3.4,0-6.63,1.695-8.55,4.605c-8.57,12.995-22.965,20.755-38.505,20.755
			c-15.08,0-29.23-7.405-37.86-19.805c-1.97-2.84-5.325-4.595-8.715-4.385c-3.46,0.105-6.635,1.95-8.435,4.91
			c-11.26,18.485-30.89,29.52-52.51,29.52c-33.88,0-61.44-27.56-61.44-61.44s27.56-61.44,61.44-61.44
			c23.74,0,44.935,13.28,55.315,34.65c1.51,3.115,4.495,5.255,7.93,5.69c3.45,0.445,6.855-0.9,9.095-3.54
			c8.785-10.37,21.605-16.32,35.18-16.32c8.68,0,17.135,2.425,24.445,7.015c2.405,1.495,5.315,1.955,8.05,1.23
			c2.74-0.725,5.055-2.545,6.405-5.035c4.485-8.295,13.12-13.45,22.54-13.45c12.75,0,23.655,9.51,25.37,22.115
			c0.74,5.445,5.645,9.29,11.115,8.82c11.56-1.095,23.505,2.235,32.87,9.57c4.245,3.325,10.35,2.795,13.95-1.235
			c8.365-9.37,23.485-11.11,33.715-3.965c3.52,2.45,8.2,2.45,11.72,0c4.295-3,9.355-4.585,14.62-4.585
			c14.115,0,25.6,11.485,25.6,25.6c0,14.115-11.485,25.6-25.6,25.6C399.215,112.64,394.155,111.055,389.86,108.055z M481.28,297
			c0,16.915-13.78,30.68-30.72,30.68h-30.72V184.32l61.44,0.01V297z"/>
	</g>
</g>
<g>
	<g>
		<rect x="102.4" y="204.8" width="20.48" height="245.76"/>
	</g>
</g>
<g>
	<g>
		<rect x="215.04" y="204.8" width="20.48" height="245.76"/>
	</g>
</g>
<g>
	<g>
		<rect x="337.92" y="204.8" width="20.48" height="245.76"/>
	</g>
</g>
<g>
	<g>
		<path d="M92.16,40.96c-22.585,0-40.96,18.375-40.96,40.96c0,5.655,4.585,10.24,10.24,10.24s10.24-4.585,10.24-10.24
			c0-11.295,9.185-20.48,20.48-20.48c5.655,0,10.24-4.585,10.24-10.24S97.815,40.96,92.16,40.96z"/>
	</g>
</g>
<g>
</g>
<g>
</g>
<g>
</g>
<g>
</g>
<g>
</g>
<g>
</g>
<g>
</g>
<g>
</g>
<g>
</g>
<g>
</g>
<g>
</g>
<g>
</g>
<g>
</g>
<g>
</g>
<g>
</g>
</svg>
