<svg width="512" height="512" viewBox="0 0 512 512" fill="none" xmlns="http://www.w3.org/2000/svg">
<path d="M481.31 163.84H419.84V133.12C419.84 132.176 419.541 131.326 419.301 130.456C437.418 124.247 450.56 107.235 450.56 87.04C450.56 61.63 429.89 40.96 404.48 40.96C397.3 40.96 390.33 42.6 384 45.75C368.825 38.2 349.475 40 335.89 50.165C326.405 44.54 315.755 41.415 304.585 41.005C298.205 22.955 280.895 10.24 261.12 10.24C247.62 10.24 235.015 16.12 226.365 26.05C204.5 16.485 177.64 19.895 158.9 34.43C143.675 13.17 118.73 0 92.16 0C46.99 0 10.24 36.75 10.24 81.92C10.24 102.616 18.015 121.488 30.72 135.922V440.265C30.72 479.82 62.9 512 102.455 512H348.105C387.66 512 419.84 479.82 419.84 440.265V348.16H450.56C478.79 348.16 501.76 325.21 501.76 297V184.33C501.76 173.03 492.585 163.84 481.31 163.84ZM399.36 133.12V174.08V337.92V440.265C399.36 468.525 376.365 491.52 348.105 491.52H102.455C74.195 491.52 51.2 468.525 51.2 440.265V152.755C63.266 159.761 77.232 163.84 92.16 163.84C116.365 163.84 138.695 153.47 154.115 135.555C166.345 147.025 182.6 153.6 199.68 153.6C215.71 153.6 230.895 147.885 242.775 137.785C253.9 159.585 276.565 174.08 302.08 174.08C329.18 174.08 353.335 157.615 363.54 133.12C370.715 133.115 377.68 131.475 384 128.33C388.83 130.733 394.035 132.241 399.419 132.83C399.415 132.931 399.36 133.018 399.36 133.12ZM389.86 108.055C386.34 105.605 381.66 105.605 378.14 108.055C372.465 112.025 365.31 113.52 358.455 112.145C353.16 111.09 347.985 114.325 346.58 119.53C341.185 139.59 322.885 153.6 302.08 153.6C279.93 153.6 260.885 137.83 256.8 116.105C256.025 112.005 252.845 108.785 248.755 107.96C248.08 107.825 247.405 107.76 246.735 107.76C243.335 107.76 240.105 109.455 238.185 112.365C229.615 125.36 215.22 133.12 199.68 133.12C184.6 133.12 170.45 125.715 161.82 113.315C159.85 110.475 156.495 108.72 153.105 108.93C149.645 109.035 146.47 110.88 144.67 113.84C133.41 132.325 113.78 143.36 92.16 143.36C58.28 143.36 30.72 115.8 30.72 81.92C30.72 48.04 58.28 20.48 92.16 20.48C115.9 20.48 137.095 33.76 147.475 55.13C148.985 58.245 151.97 60.385 155.405 60.82C158.855 61.265 162.26 59.92 164.5 57.28C173.285 46.91 186.105 40.96 199.68 40.96C208.36 40.96 216.815 43.385 224.125 47.975C226.53 49.47 229.44 49.93 232.175 49.205C234.915 48.48 237.23 46.66 238.58 44.17C243.065 35.875 251.7 30.72 261.12 30.72C273.87 30.72 284.775 40.23 286.49 52.835C287.23 58.28 292.135 62.125 297.605 61.655C309.165 60.56 321.11 63.89 330.475 71.225C334.72 74.55 340.825 74.02 344.425 69.99C352.79 60.62 367.91 58.88 378.14 66.025C381.66 68.475 386.34 68.475 389.86 66.025C394.155 63.025 399.215 61.44 404.48 61.44C418.595 61.44 430.08 72.925 430.08 87.04C430.08 101.155 418.595 112.64 404.48 112.64C399.215 112.64 394.155 111.055 389.86 108.055ZM481.28 297C481.28 313.915 467.5 327.68 450.56 327.68H419.84V184.32L481.28 184.33V297V297Z" fill="#D8D8D8"/>
<path d="M122.88 204.8H102.4V450.56H122.88V204.8Z" fill="#D8D8D8"/>
<path d="M235.52 204.8H215.04V450.56H235.52V204.8Z" fill="#D8D8D8"/>
<path d="M358.4 204.8H337.92V450.56H358.4V204.8Z" fill="#D8D8D8"/>
<path d="M92.16 40.96C69.575 40.96 51.2 59.335 51.2 81.92C51.2 87.575 55.785 92.16 61.44 92.16C67.095 92.16 71.68 87.575 71.68 81.92C71.68 70.625 80.865 61.44 92.16 61.44C97.815 61.44 102.4 56.855 102.4 51.2C102.4 45.545 97.815 40.96 92.16 40.96Z" fill="#D8D8D8"/>
</svg>
